STARTFONT 2.1
FONT -Monotype-Nimrod-Bold-I-Normal--19-140-100-100-P-122-iso8859-5
SIZE 14 100 100
FONTBOUNDINGBOX 26 22 -2 -4

STARTPROPERTIES 24
FOUNDRY "Monotype"
FAMILY_NAME "Nimrod"
WEIGHT_NAME "Bold"
SLANT "I"
SETWIDTH_NAME "Normal"
ADD_STYLE_NAME ""
PIXEL_SIZE 19
POINT_SIZE 140
RESOLUTION_X 100
RESOLUTION_Y 100
SPACING "P"
AVERAGE_WIDTH 122
CHARSET_REGISTRY "iso8859"
CHARSET_ENCODING "5"
FACE_NAME "Nimrod Bold Inclined ISO Latin Cyrillic"
_DEC_DEVICE_FONTNAMES "PS=nimrod-bin-latcyrillic"
COPYRIGHT "Copyright (c) 1994 Monotype Typography Ltd."
CAP_HEIGHT 16
X_HEIGHT 12
WEIGHT 10
QUAD_WIDTH 14
DEFAULT_CHAR 160
FONT_DESCENT 5
FONT_ASCENT 18
ENDPROPERTIES

CHARS 191

STARTCHAR space
ENCODING 32
SWIDTH 250 0
DWIDTH 5 0
BBX 0 0 0 0
BITMAP
ENDCHAR

STARTCHAR exclam
ENCODING 33
SWIDTH 375 0
DWIDTH 7 0
BBX 6 14 1 0
BITMAP
0C
1C
1C
1C
38
38
30
30
20
20
00
E0
E0
E0
ENDCHAR

STARTCHAR quotedbl
ENCODING 34
SWIDTH 552 0
DWIDTH 10 0
BBX 8 6 1 8
BITMAP
63
63
E7
C6
84
84
ENDCHAR

STARTCHAR numbersign
ENCODING 35
SWIDTH 667 0
DWIDTH 13 0
BBX 13 14 0 0
BITMAP
0C60
0C60
0C60
0C60
7FF8
18C0
18C0
18C0
18C0
FFF0
3180
3180
3180
3180
ENDCHAR

STARTCHAR dollar
ENCODING 36
SWIDTH 510 0
DWIDTH 10 0
BBX 10 16 0 -2
BITMAP
0200
0780
18C0
39C0
3980
3800
3C00
1E00
0F00
0700
6700
E700
CE00
7800
1000
1000
ENDCHAR

STARTCHAR percent
ENCODING 37
SWIDTH 1000 0
DWIDTH 19 0
BBX 14 14 3 0
BITMAP
3860
6C40
6CC0
CC80
D980
D900
7300
0238
066C
046C
0CCC
08D8
18D8
1070
ENDCHAR

STARTCHAR ampersand
ENCODING 38
SWIDTH 927 0
DWIDTH 18 0
BBX 16 14 1 0
BITMAP
01F0
03B8
0738
0738
0770
07C0
1F0F
7386
E38C
E1C8
E1D0
F0E1
79F2
1E3C
ENDCHAR

STARTCHAR quoteright
ENCODING 39
SWIDTH 323 0
DWIDTH 6 0
BBX 4 5 1 9
BITMAP
60
70
30
20
C0
ENDCHAR

STARTCHAR parenleft
ENCODING 40
SWIDTH 385 0
DWIDTH 7 0
BBX 8 18 0 -4
BITMAP
03
06
0C
18
38
30
70
60
E0
E0
E0
E0
E0
E0
60
70
30
18
ENDCHAR

STARTCHAR parenright
ENCODING 41
SWIDTH 385 0
DWIDTH 7 0
BBX 8 18 -1 -4
BITMAP
18
0C
0E
06
07
07
07
07
07
07
06
0E
0C
1C
18
30
60
C0
ENDCHAR

STARTCHAR asterisk
ENCODING 42
SWIDTH 552 0
DWIDTH 10 0
BBX 9 9 1 5
BITMAP
0600
CE00
EC00
7B00
1F80
7980
EC00
CE00
0400
ENDCHAR

STARTCHAR plus
ENCODING 43
SWIDTH 667 0
DWIDTH 13 0
BBX 10 10 2 2
BITMAP
0C00
0C00
0C00
0C00
FFC0
FFC0
0C00
0C00
0C00
0C00
ENDCHAR

STARTCHAR comma
ENCODING 44
SWIDTH 323 0
DWIDTH 6 0
BBX 4 5 1 -2
BITMAP
60
70
30
20
C0
ENDCHAR

STARTCHAR minus
ENCODING 45
SWIDTH 667 0
DWIDTH 13 0
BBX 10 2 2 6
BITMAP
FFC0
FFC0
ENDCHAR

STARTCHAR period
ENCODING 46
SWIDTH 323 0
DWIDTH 6 0
BBX 3 3 2 0
BITMAP
E0
E0
E0
ENDCHAR

STARTCHAR slash
ENCODING 47
SWIDTH 552 0
DWIDTH 10 0
BBX 9 14 1 0
BITMAP
0180
0300
0300
0600
0600
0C00
0C00
1800
1800
3000
3000
6000
6000
C000
ENDCHAR

STARTCHAR zero
ENCODING 48
SWIDTH 562 0
DWIDTH 11 0
BBX 11 14 0 0
BITMAP
0F80
1DC0
38E0
38E0
38E0
71C0
71C0
71C0
71C0
E380
E380
E380
7700
3E00
ENDCHAR

STARTCHAR one
ENCODING 49
SWIDTH 562 0
DWIDTH 11 0
BBX 7 14 2 0
BITMAP
06
3E
0E
0E
0E
1C
1C
1C
1C
1C
38
38
38
FE
ENDCHAR

STARTCHAR two
ENCODING 50
SWIDTH 562 0
DWIDTH 11 0
BBX 10 14 0 0
BITMAP
0F00
1380
31C0
39C0
19C0
0380
0380
0700
0E00
1800
3080
4180
FF00
FF00
ENDCHAR

STARTCHAR three
ENCODING 51
SWIDTH 562 0
DWIDTH 11 0
BBX 10 14 1 0
BITMAP
1F00
2380
31C0
39C0
11C0
0380
1E00
0700
0380
4380
E380
C380
8700
7C00
ENDCHAR

STARTCHAR four
ENCODING 52
SWIDTH 562 0
DWIDTH 11 0
BBX 10 14 1 0
BITMAP
0180
0380
0780
0B80
0B80
1380
2700
2700
4700
8700
FFC0
0E00
0E00
3F80
ENDCHAR

STARTCHAR five
ENCODING 53
SWIDTH 562 0
DWIDTH 11 0
BBX 11 14 0 0
BITMAP
0FE0
1FC0
1800
1000
2000
2F00
3380
01C0
01C0
61C0
E380
C380
4700
3E00
ENDCHAR

STARTCHAR six
ENCODING 54
SWIDTH 562 0
DWIDTH 11 0
BBX 10 14 1 0
BITMAP
0780
1CC0
39C0
7080
7000
E000
EE00
F700
E380
E380
E380
E380
7700
3C00
ENDCHAR

STARTCHAR seven
ENCODING 55
SWIDTH 562 0
DWIDTH 11 0
BBX 9 14 2 0
BITMAP
7F80
FF80
C300
8600
8E00
0C00
1C00
1800
3800
3000
7000
7000
E000
E000
ENDCHAR

STARTCHAR eight
ENCODING 56
SWIDTH 562 0
DWIDTH 11 0
BBX 10 14 1 0
BITMAP
1F80
31C0
71C0
71C0
71C0
3180
1E00
6300
E380
E380
E380
E380
E300
7E00
ENDCHAR

STARTCHAR nine
ENCODING 57
SWIDTH 562 0
DWIDTH 11 0
BBX 10 14 1 0
BITMAP
0F00
3B80
71C0
71C0
71C0
71C0
3BC0
1DC0
01C0
0380
4380
E700
CE00
7800
ENDCHAR

STARTCHAR colon
ENCODING 58
SWIDTH 323 0
DWIDTH 6 0
BBX 5 10 1 0
BITMAP
38
38
38
00
00
00
00
E0
E0
E0
ENDCHAR

STARTCHAR semicolon
ENCODING 59
SWIDTH 323 0
DWIDTH 6 0
BBX 6 12 0 -2
BITMAP
1C
1C
1C
00
00
00
00
60
70
30
20
C0
ENDCHAR

STARTCHAR less
ENCODING 60
SWIDTH 667 0
DWIDTH 13 0
BBX 10 10 2 2
BITMAP
00C0
03C0
0F00
3800
E000
E000
3800
0F00
03C0
00C0
ENDCHAR

STARTCHAR equal
ENCODING 61
SWIDTH 667 0
DWIDTH 13 0
BBX 10 6 2 4
BITMAP
FFC0
FFC0
0000
0000
FFC0
FFC0
ENDCHAR

STARTCHAR greater
ENCODING 62
SWIDTH 667 0
DWIDTH 13 0
BBX 10 10 2 2
BITMAP
C000
F000
3C00
0700
01C0
01C0
0700
3C00
F000
C000
ENDCHAR

STARTCHAR question
ENCODING 63
SWIDTH 458 0
DWIDTH 9 0
BBX 9 14 0 0
BITMAP
3F00
4780
6380
7380
2380
0700
0E00
1C00
3000
2000
0000
E000
E000
E000
ENDCHAR

STARTCHAR at
ENCODING 64
SWIDTH 833 0
DWIDTH 16 0
BBX 16 18 0 -4
BITMAP
03E0
0C18
1004
2002
43B2
4671
8C31
8C31
9861
9861
9862
98E2
9D6C
4E30
4001
2006
1818
07E0
ENDCHAR

STARTCHAR A
ENCODING 65
SWIDTH 802 0
DWIDTH 15 0
BBX 16 14 -1 0
BITMAP
0030
0030
0070
00F0
00B8
0138
0338
0238
0438
0FF8
081C
101C
301C
FC7F
ENDCHAR

STARTCHAR B
ENCODING 66
SWIDTH 802 0
DWIDTH 15 0
BBX 15 14 0 0
BITMAP
1FFC
071E
070E
070E
0E0E
0E1C
0FF8
1C38
1C1C
1C1C
381C
383C
3878
FFE0
ENDCHAR

STARTCHAR C
ENCODING 67
SWIDTH 740 0
DWIDTH 14 0
BBX 13 14 1 0
BITMAP
07F8
1E38
3818
7010
7010
E000
E000
E000
E000
E010
7010
7020
3860
0F80
ENDCHAR

STARTCHAR D
ENCODING 68
SWIDTH 854 0
DWIDTH 16 0
BBX 16 14 0 0
BITMAP
1FF8
070E
0707
0707
0E07
0E07
0E07
1C07
1C07
1C0E
380E
381C
3838
FFE0
ENDCHAR

STARTCHAR E
ENCODING 69
SWIDTH 740 0
DWIDTH 14 0
BBX 15 14 0 0
BITMAP
1FFE
070E
0706
0704
0E24
0E60
0FE0
1CC0
1C40
1C48
3808
3818
3830
FFF0
ENDCHAR

STARTCHAR F
ENCODING 70
SWIDTH 729 0
DWIDTH 14 0
BBX 15 14 0 0
BITMAP
1FFE
070E
0706
0704
0E24
0E60
0FE0
1CC0
1C40
1C40
3800
3800
3800
FE00
ENDCHAR

STARTCHAR G
ENCODING 71
SWIDTH 854 0
DWIDTH 16 0
BBX 14 14 1 0
BITMAP
07F8
1C38
3818
7010
7010
E000
E000
E1FC
E070
E070
7070
70E0
38E0
0F80
ENDCHAR

STARTCHAR H
ENCODING 72
SWIDTH 865 0
DWIDTH 16 0
BBX 18 14 -1 0
BITMAP
1FDFC0
070700
070700
070700
0E0E00
0E0E00
0FFE00
1C1C00
1C1C00
1C1C00
383800
383800
383800
FEFE00
ENDCHAR

STARTCHAR I
ENCODING 73
SWIDTH 479 0
DWIDTH 9 0
BBX 10 14 0 0
BITMAP
1FC0
0700
0700
0700
0E00
0E00
0E00
1C00
1C00
1C00
3800
3800
3800
FE00
ENDCHAR

STARTCHAR J
ENCODING 74
SWIDTH 656 0
DWIDTH 12 0
BBX 14 14 0 0
BITMAP
01FC
0070
0070
0070
00E0
00E0
00E0
00E0
41C0
E1C0
E1C0
C380
6700
3C00
ENDCHAR

STARTCHAR K
ENCODING 75
SWIDTH 823 0
DWIDTH 16 0
BBX 17 14 0 0
BITMAP
1FDF80
070600
070C00
071000
0E6000
0EC000
0FE000
1EE000
1CE000
1C7000
387000
383800
383800
FEFE00
ENDCHAR

STARTCHAR L
ENCODING 76
SWIDTH 698 0
DWIDTH 13 0
BBX 13 14 0 0
BITMAP
1FC0
0700
0700
0700
0E00
0E00
0E00
1C00
1C00
1C08
3808
3818
3830
FFF0
ENDCHAR

STARTCHAR M
ENCODING 77
SWIDTH 1031 0
DWIDTH 20 0
BBX 21 14 0 0
BITMAP
1F01F8
0703E0
0706E0
0F84E0
0B8DC0
0B89C0
0B99C0
11D380
11F380
11E380
21C700
21C700
718700
F99FC0
ENDCHAR

STARTCHAR N
ENCODING 78
SWIDTH 833 0
DWIDTH 16 0
BBX 16 14 0 0
BITMAP
3E1F
0E0E
0F04
1F04
1384
1388
1388
11C8
21C8
20E8
20F0
2070
7070
F830
ENDCHAR

STARTCHAR O
ENCODING 79
SWIDTH 823 0
DWIDTH 16 0
BBX 14 14 1 0
BITMAP
07E0
1C38
381C
701C
701C
E01C
E01C
E01C
E01C
E038
E038
E070
70E0
1F80
ENDCHAR

STARTCHAR P
ENCODING 80
SWIDTH 771 0
DWIDTH 15 0
BBX 15 14 0 0
BITMAP
1FF8
071C
070E
070E
0E0E
0E1C
0E3C
1FF0
1C00
1C00
3800
3800
3800
FE00
ENDCHAR

STARTCHAR Q
ENCODING 81
SWIDTH 823 0
DWIDTH 16 0
BBX 14 16 1 -2
BITMAP
07E0
1C38
381C
701C
701C
E01C
E01C
E01C
EF1C
F3B8
E1B8
E1F0
71E0
1F80
00E0
003C
ENDCHAR

STARTCHAR R
ENCODING 82
SWIDTH 823 0
DWIDTH 16 0
BBX 15 14 0 0
BITMAP
1FF8
071C
070E
070E
0E0E
0E0E
0E1C
1FF0
1C70
1C38
3838
3838
381C
FE1E
ENDCHAR

STARTCHAR S
ENCODING 83
SWIDTH 667 0
DWIDTH 13 0
BBX 12 14 1 0
BITMAP
0FE0
1C70
3830
3810
3C10
3E00
1F00
0F80
07C0
83C0
81C0
C1C0
E380
7F00
ENDCHAR

STARTCHAR T
ENCODING 84
SWIDTH 750 0
DWIDTH 14 0
BBX 13 14 1 0
BITMAP
7FF8
E738
C718
8710
8E10
0E00
0E00
1C00
1C00
1C00
3800
3800
3800
FE00
ENDCHAR

STARTCHAR U
ENCODING 85
SWIDTH 792 0
DWIDTH 15 0
BBX 14 14 2 0
BITMAP
FE7C
3838
3810
3810
7010
7020
7020
7020
E020
E040
E040
E080
7180
3E00
ENDCHAR

STARTCHAR V
ENCODING 86
SWIDTH 771 0
DWIDTH 15 0
BBX 16 14 1 0
BITMAP
FE3F
380C
3808
3810
1C30
1C20
1C40
1CC0
1C80
1D00
1F00
0E00
0C00
0C00
ENDCHAR

STARTCHAR W
ENCODING 87
SWIDTH 1104 0
DWIDTH 21 0
BBX 22 14 1 0
BITMAP
FE7CFC
383830
383820
383820
1C7C40
1C5C40
1CDC80
1C9C80
1D9D00
1D1D00
1F1E00
0E0E00
0C0C00
0C0C00
ENDCHAR

STARTCHAR X
ENCODING 88
SWIDTH 823 0
DWIDTH 16 0
BBX 16 14 0 0
BITMAP
3FBF
0E0C
0E08
0710
0720
03C0
01C0
01C0
02E0
0470
0870
1038
3038
FCFE
ENDCHAR

STARTCHAR Y
ENCODING 89
SWIDTH 771 0
DWIDTH 15 0
BBX 14 14 2 0
BITMAP
FC3C
7018
3810
3820
1C40
1C40
0E80
0700
0700
0700
0E00
0E00
0E00
3F80
ENDCHAR

STARTCHAR Z
ENCODING 90
SWIDTH 719 0
DWIDTH 14 0
BBX 14 14 0 0
BITMAP
07FC
0E1C
0C38
1870
10E0
01C0
0380
0700
0E00
1C20
3860
70C0
E1C0
FF80
ENDCHAR

STARTCHAR bracketleft
ENCODING 91
SWIDTH 396 0
DWIDTH 8 0
BBX 9 18 0 -4
BITMAP
0F80
0E00
0E00
1C00
1C00
1C00
1C00
3800
3800
3800
7000
7000
7000
7000
E000
E000
E000
F800
ENDCHAR

STARTCHAR backslash
ENCODING 92
SWIDTH 552 0
DWIDTH 10 0
BBX 8 14 1 0
BITMAP
C0
C0
60
60
30
30
18
18
0C
0C
06
06
03
03
ENDCHAR

STARTCHAR bracketright
ENCODING 93
SWIDTH 396 0
DWIDTH 8 0
BBX 9 18 0 -4
BITMAP
0F80
0380
0380
0380
0700
0700
0700
0700
0E00
0E00
0E00
1C00
1C00
1C00
1C00
3800
3800
F800
ENDCHAR

STARTCHAR asciicircum
ENCODING 94
SWIDTH 573 0
DWIDTH 11 0
BBX 9 7 1 7
BITMAP
0800
1C00
3600
3600
6300
6300
C180
ENDCHAR

STARTCHAR underscore
ENCODING 95
SWIDTH 500 0
DWIDTH 10 0
BBX 10 1 0 -4
BITMAP
FFC0
ENDCHAR

STARTCHAR quoteleft
ENCODING 96
SWIDTH 323 0
DWIDTH 6 0
BBX 4 5 2 9
BITMAP
30
40
C0
E0
60
ENDCHAR

STARTCHAR a
ENCODING 97
SWIDTH 667 0
DWIDTH 13 0
BBX 12 10 1 0
BITMAP
1F60
39E0
70E0
70E0
E1C0
E1C0
E1C0
E390
73A0
3DC0
ENDCHAR

STARTCHAR b
ENCODING 98
SWIDTH 635 0
DWIDTH 12 0
BBX 11 14 1 0
BITMAP
3C00
1C00
1C00
3800
3B80
3DC0
70E0
70E0
70E0
70E0
E1C0
E1C0
F380
DE00
ENDCHAR

STARTCHAR c
ENCODING 99
SWIDTH 510 0
DWIDTH 10 0
BBX 9 10 1 0
BITMAP
0F00
3980
7080
7000
E000
E000
E000
E100
7200
3C00
ENDCHAR

STARTCHAR d
ENCODING 100
SWIDTH 667 0
DWIDTH 13 0
BBX 12 14 1 0
BITMAP
00F0
0070
0070
00E0
0EE0
39E0
71C0
71C0
E1C0
E1C0
E380
E390
73A0
3DC0
ENDCHAR

STARTCHAR e
ENCODING 101
SWIDTH 500 0
DWIDTH 10 0
BBX 9 10 1 0
BITMAP
0F00
3980
7180
7380
E700
EC00
F000
E100
7200
3C00
ENDCHAR

STARTCHAR f
ENCODING 102
SWIDTH 406 0
DWIDTH 8 0
BBX 14 17 -2 -3
BITMAP
00F8
01CC
01C4
0380
0FE0
0380
0380
0700
0700
0700
0700
0E00
0E00
0E00
CC00
DC00
7800
ENDCHAR

STARTCHAR g
ENCODING 103
SWIDTH 625 0
DWIDTH 12 0
BBX 12 13 0 -3
BITMAP
0FF0
1CC0
38E0
38E0
19C0
3F80
7000
3E00
1F80
73C0
E1C0
E380
7E00
ENDCHAR

STARTCHAR h
ENCODING 104
SWIDTH 677 0
DWIDTH 13 0
BBX 12 14 1 0
BITMAP
7C00
1C00
1C00
3800
3BC0
3DE0
38E0
78E0
71C0
71C0
71C0
E390
E3A0
E1C0
ENDCHAR

STARTCHAR i
ENCODING 105
SWIDTH 396 0
DWIDTH 8 0
BBX 6 14 1 0
BITMAP
1C
1C
1C
00
F8
38
38
70
70
70
E0
E4
E8
70
ENDCHAR

STARTCHAR j
ENCODING 106
SWIDTH 396 0
DWIDTH 8 0
BBX 10 17 -2 -3
BITMAP
01C0
01C0
01C0
0000
0F80
0380
0380
0700
0700
0700
0E00
0E00
0E00
1C00
9C00
D800
7000
ENDCHAR

STARTCHAR k
ENCODING 107
SWIDTH 646 0
DWIDTH 12 0
BBX 11 14 1 0
BITMAP
7C00
1C00
1C00
3800
38C0
3960
3A20
7600
7E00
7700
7700
E720
E740
E380
ENDCHAR

STARTCHAR l
ENCODING 108
SWIDTH 396 0
DWIDTH 8 0
BBX 6 14 1 0
BITMAP
7C
1C
1C
1C
38
38
38
70
70
70
E0
E4
E8
70
ENDCHAR

STARTCHAR m
ENCODING 109
SWIDTH 948 0
DWIDTH 18 0
BBX 18 10 0 0
BITMAP
FBDF00
3CF380
38E380
38E380
71C700
71C700
71C700
E38E40
E38E80
E38700
ENDCHAR

STARTCHAR n
ENCODING 110
SWIDTH 677 0
DWIDTH 13 0
BBX 12 10 1 0
BITMAP
FBC0
3CE0
38E0
30E0
71C0
71C0
71C0
E390
E3A0
E1C0
ENDCHAR

STARTCHAR o
ENCODING 111
SWIDTH 594 0
DWIDTH 11 0
BBX 10 10 1 0
BITMAP
0F00
3B80
71C0
71C0
E1C0
E1C0
E380
E380
7700
3C00
ENDCHAR

STARTCHAR p
ENCODING 112
SWIDTH 646 0
DWIDTH 12 0
BBX 13 13 -1 -3
BITMAP
1EE0
0F70
0E38
1C38
1C38
1C38
1C70
3870
3CE0
3B80
7000
7000
FC00
ENDCHAR

STARTCHAR q
ENCODING 113
SWIDTH 625 0
DWIDTH 12 0
BBX 11 13 1 -3
BITMAP
0F60
39E0
70E0
71C0
E1C0
E1C0
E380
E380
7780
3B80
0700
0700
1FC0
ENDCHAR

STARTCHAR r
ENCODING 114
SWIDTH 552 0
DWIDTH 10 0
BBX 10 10 1 0
BITMAP
FB80
3DC0
3CC0
3800
7000
7000
7000
E000
E000
E000
ENDCHAR

STARTCHAR s
ENCODING 115
SWIDTH 500 0
DWIDTH 10 0
BBX 10 10 0 0
BITMAP
0F80
1CC0
3840
3C00
3E00
1F00
0F00
8700
CE00
7C00
ENDCHAR

STARTCHAR t
ENCODING 116
SWIDTH 406 0
DWIDTH 8 0
BBX 8 14 1 0
BITMAP
04
04
0C
1C
7F
38
38
70
70
70
E0
E4
E8
70
ENDCHAR

STARTCHAR u
ENCODING 117
SWIDTH 677 0
DWIDTH 13 0
BBX 12 10 1 0
BITMAP
F8E0
38E0
38E0
71C0
71C0
71C0
E380
E390
E3A0
7DC0
ENDCHAR

STARTCHAR v
ENCODING 118
SWIDTH 562 0
DWIDTH 11 0
BBX 9 10 2 0
BITMAP
F900
3B80
3980
7080
7180
7100
E300
E200
E400
7800
ENDCHAR

STARTCHAR w
ENCODING 119
SWIDTH 865 0
DWIDTH 16 0
BBX 15 10 1 0
BITMAP
F8E4
38EE
38E6
71C2
71C6
71C4
E38C
E388
E790
79E0
ENDCHAR

STARTCHAR x
ENCODING 120
SWIDTH 625 0
DWIDTH 12 0
BBX 12 10 0 0
BITMAP
1CE0
2DB0
4F20
0F00
0600
0600
0F00
4F20
DB40
7380
ENDCHAR

STARTCHAR y
ENCODING 121
SWIDTH 552 0
DWIDTH 10 0
BBX 11 13 -1 -3
BITMAP
3840
5CE0
9C60
1C20
0E60
0E40
0EC0
0780
0700
0600
4400
6800
3000
ENDCHAR

STARTCHAR z
ENCODING 122
SWIDTH 542 0
DWIDTH 10 0
BBX 9 10 1 0
BITMAP
3880
7F80
5D00
0200
0C00
1800
2000
5D00
FF00
8E00
ENDCHAR

STARTCHAR braceleft
ENCODING 123
SWIDTH 396 0
DWIDTH 8 0
BBX 6 18 2 -4
BITMAP
0C
18
18
38
38
30
30
60
C0
C0
60
60
60
E0
E0
C0
C0
60
ENDCHAR

STARTCHAR bar
ENCODING 124
SWIDTH 542 0
DWIDTH 10 0
BBX 2 14 5 0
BITMAP
C0
C0
C0
C0
C0
C0
C0
C0
C0
C0
C0
C0
C0
C0
ENDCHAR

STARTCHAR braceright
ENCODING 125
SWIDTH 396 0
DWIDTH 8 0
BBX 6 18 0 -4
BITMAP
18
0C
0C
1C
1C
18
18
18
0C
0C
18
30
30
70
70
60
60
C0
ENDCHAR

STARTCHAR asciitilde
ENCODING 126
SWIDTH 667 0
DWIDTH 13 0
BBX 9 3 2 5
BITMAP
7880
BE80
8F00
ENDCHAR

STARTCHAR space
ENCODING 160
SWIDTH 250 0
DWIDTH 6 0
BBX 0 0 0 0
BITMAP
ENDCHAR

STARTCHAR afii10023
ENCODING 161
SWIDTH 740 0
DWIDTH 14 0
BBX 15 18 -1 0
BITMAP
071C
071C
071C
0000
1FFE
070E
0706
0704
0E24
0E60
0FE0
1CC0
1C40
1C48
3808
3818
3830
FFF0
ENDCHAR

STARTCHAR afii10051
ENCODING 162
SWIDTH 896 0
DWIDTH 17 0
BBX 14 14 2 0
BITMAP
FFF8
E738
C718
8708
0E00
0EF0
0FB8
1E1C
1C1C
1C1C
3838
3838
3870
FEE0
ENDCHAR

STARTCHAR afii10052
ENCODING 163
SWIDTH 719 0
DWIDTH 14 0
BBX 14 18 0 0
BITMAP
0030
0070
00C0
0000
1FFC
071C
070C
0708
0E08
0E00
0E00
1C00
1C00
1C00
3800
3800
3800
FE00
ENDCHAR

STARTCHAR afii10053
ENCODING 164
SWIDTH 740 0
DWIDTH 14 0
BBX 13 14 1 0
BITMAP
07F8
1E38
3818
7010
7010
E000
FF00
E000
E000
E010
7010
7020
3860
0F80
ENDCHAR

STARTCHAR afii10054
ENCODING 165
SWIDTH 667 0
DWIDTH 13 0
BBX 12 14 1 0
BITMAP
0FE0
1C70
3830
3810
3C10
3E00
1F00
0F80
07C0
83C0
81C0
C1C0
E380
7F00
ENDCHAR

STARTCHAR afii10055
ENCODING 166
SWIDTH 479 0
DWIDTH 9 0
BBX 10 14 0 0
BITMAP
1FC0
0700
0700
0700
0E00
0E00
0E00
1C00
1C00
1C00
3800
3800
3800
FE00
ENDCHAR

STARTCHAR afii10056
ENCODING 167
SWIDTH 479 0
DWIDTH 9 0
BBX 11 18 0 0
BITMAP
1CE0
1CE0
1CE0
0000
1FC0
0700
0700
0700
0E00
0E00
0E00
1C00
1C00
1C00
3800
3800
3800
FE00
ENDCHAR

STARTCHAR afii10057
ENCODING 168
SWIDTH 656 0
DWIDTH 12 0
BBX 14 14 0 0
BITMAP
01FC
0070
0070
0070
00E0
00E0
00E0
00E0
41C0
E1C0
E1C0
C380
6700
3C00
ENDCHAR

STARTCHAR afii10058
ENCODING 169
SWIDTH 1219 0
DWIDTH 23 0
BBX 22 14 0 0
BITMAP
07FFC0
01C700
018700
010700
030E00
020E00
020FE0
021E38
061C1C
041C1C
04381C
CC3838
E83870
70FFC0
ENDCHAR

STARTCHAR afii10059
ENCODING 170
SWIDTH 1198 0
DWIDTH 23 0
BBX 22 14 0 0
BITMAP
1FDFC0
070700
070700
0E0700
0E0E00
0E0E00
0FFFE0
1C1C38
1C1C1C
1C1C1C
1C381C
383838
383870
FEFFC0
ENDCHAR

STARTCHAR afii10060
ENCODING 171
SWIDTH 917 0
DWIDTH 17 0
BBX 14 14 2 0
BITMAP
FFF8
E738
C718
8708
0E00
0EF8
0F3C
1E1C
1C1C
1C38
3838
3870
3870
FEFC
ENDCHAR

STARTCHAR afii10061
ENCODING 172
SWIDTH 833 0
DWIDTH 16 0
BBX 17 18 0 0
BITMAP
000C00
001C00
003000
000000
1FC700
070F80
070B00
071800
0E1000
0E3000
0FE000
1EE000
1CE000
1C7000
387000
383800
383800
FE3E00
ENDCHAR

STARTCHAR hyphen
ENCODING 173
SWIDTH 323 0
DWIDTH 6 0
BBX 4 2 1 4
BITMAP
F0
F0
ENDCHAR

STARTCHAR afii10062
ENCODING 174
SWIDTH 781 0
DWIDTH 15 0
BBX 16 18 0 0
BITMAP
0318
0318
01F0
0000
7F3F
1C0C
1C18
1C18
0E30
0E60
0E40
0EC0
0780
6700
E600
C400
4800
3000
ENDCHAR

STARTCHAR afii10145
ENCODING 175
SWIDTH 865 0
DWIDTH 16 0
BBX 18 17 -1 -3
BITMAP
1FDFC0
070700
070700
070700
0E0E00
0E0E00
0E0E00
1C1C00
1C1C00
1C1C00
383800
383800
383800
FFFE00
038000
030000
020000
ENDCHAR

STARTCHAR afii10017
ENCODING 176
SWIDTH 802 0
DWIDTH 15 0
BBX 16 14 -1 0
BITMAP
0030
0030
0070
00F0
00B8
0138
0338
0238
0438
0FF8
081C
101C
301C
FC7F
ENDCHAR

STARTCHAR afii10018
ENCODING 177
SWIDTH 802 0
DWIDTH 15 0
BBX 15 14 0 0
BITMAP
1FFE
070E
0706
0704
0E04
0E00
0FF0
1C38
1C1C
1C1C
381C
383C
3878
FFE0
ENDCHAR

STARTCHAR afii10019
ENCODING 178
SWIDTH 802 0
DWIDTH 15 0
BBX 15 14 0 0
BITMAP
1FFC
071E
070E
070E
0E0E
0E1C
0FF8
1C38
1C1C
1C1C
381C
383C
3878
FFE0
ENDCHAR

STARTCHAR afii10020
ENCODING 179
SWIDTH 719 0
DWIDTH 14 0
BBX 14 14 0 0
BITMAP
1FFC
071C
070C
0708
0E08
0E00
0E00
1C00
1C00
1C00
3800
3800
3800
FE00
ENDCHAR

STARTCHAR afii10021
ENCODING 180
SWIDTH 813 0
DWIDTH 15 0
BBX 17 17 0 -3
BITMAP
0FFF80
038E00
030E00
020E00
061C00
041C00
041C00
043800
0C3800
083800
087000
187000
307000
FFFC00
C00C00
800400
800400
ENDCHAR

STARTCHAR afii10022
ENCODING 181
SWIDTH 740 0
DWIDTH 14 0
BBX 15 14 -1 0
BITMAP
1FFE
070E
0706
0704
0E24
0E60
0FE0
1CC0
1C40
1C48
3808
3818
3830
FFF0
ENDCHAR

STARTCHAR afii10024
ENCODING 182
SWIDTH 1177 0
DWIDTH 22 0
BBX 23 14 0 0
BITMAP
387F1C
7C1C3E
341C2C
061C60
023840
0338C0
07FF80
077380
0E7380
1C71C0
38E1C0
38E0E0
70E0E0
F3F8F0
ENDCHAR

STARTCHAR afii10025
ENCODING 183
SWIDTH 656 0
DWIDTH 12 0
BBX 13 14 0 0
BITMAP
0FE0
0C70
1838
1038
0078
00F0
0FE0
01C0
00E0
00E0
80E0
C1E0
63C0
1F00
ENDCHAR

STARTCHAR afii10026
ENCODING 184
SWIDTH 865 0
DWIDTH 16 0
BBX 18 14 -1 0
BITMAP
1FDFC0
070700
070700
070F00
0E1E00
0E2E00
0E4E00
1C9C00
1D1C00
1E1C00
3C3800
383800
383800
FEFE00
ENDCHAR

STARTCHAR afii10027
ENCODING 185
SWIDTH 865 0
DWIDTH 16 0
BBX 18 18 -1 0
BITMAP
018C00
018C00
00F800
000000
1FDFC0
070700
070700
070F00
0E1E00
0E2E00
0E4E00
1C9C00
1D1C00
1E1C00
3C3800
383800
383800
FEFE00
ENDCHAR

STARTCHAR afii10028
ENCODING 186
SWIDTH 844 0
DWIDTH 16 0
BBX 17 14 0 0
BITMAP
1FC700
070F80
070B00
071800
0E1000
0E3000
0FE000
1EE000
1CE000
1C7000
387000
383800
383800
FE3E00
ENDCHAR

STARTCHAR afii10029
ENCODING 187
SWIDTH 865 0
DWIDTH 16 0
BBX 18 14 0 0
BITMAP
07FFC0
01C700
018700
010700
030E00
020E00
020E00
021C00
061C00
041C00
043800
CC3800
E83800
70FE00
ENDCHAR

STARTCHAR afii10030
ENCODING 188
SWIDTH 1031 0
DWIDTH 20 0
BBX 21 14 0 0
BITMAP
1F81F8
0783E0
0786E0
0F84E0
0B8DC0
0989C0
09D9C0
11D380
11F380
11E380
21C700
21C700
718700
F99FC0
ENDCHAR

STARTCHAR afii10031
ENCODING 189
SWIDTH 865 0
DWIDTH 16 0
BBX 18 14 0 0
BITMAP
1FDFC0
070700
070700
070700
0E0E00
0E0E00
0FFE00
1C1C00
1C1C00
1C1C00
383800
383800
383800
FEFE00
ENDCHAR

STARTCHAR afii10032
ENCODING 190
SWIDTH 823 0
DWIDTH 16 0
BBX 14 14 1 0
BITMAP
07E0
1C38
381C
701C
701C
E01C
E01C
E01C
E01C
E038
E038
E070
70E0
1F80
ENDCHAR

STARTCHAR afii10033
ENCODING 191
SWIDTH 865 0
DWIDTH 16 0
BBX 18 14 0 0
BITMAP
1FFFC0
070700
070700
070700
0E0E00
0E0E00
0E0E00
1C1C00
1C1C00
1C1C00
383800
383800
383800
FEFE00
ENDCHAR

STARTCHAR afii10034
ENCODING 192
SWIDTH 771 0
DWIDTH 15 0
BBX 15 14 0 0
BITMAP
1FF8
071C
070E
070E
0E0E
0E1C
0E3C
1FF0
1C00
1C00
3800
3800
3800
FF00
ENDCHAR

STARTCHAR afii10035
ENCODING 193
SWIDTH 740 0
DWIDTH 14 0
BBX 13 14 1 0
BITMAP
07F8
1E38
3818
7010
7010
E000
E000
E000
E000
E010
7010
7020
3860
0F80
ENDCHAR

STARTCHAR afii10036
ENCODING 194
SWIDTH 750 0
DWIDTH 14 0
BBX 13 14 1 0
BITMAP
7FF8
E738
C718
8710
8E10
0E00
0E00
1C00
1C00
1C00
3800
3800
3800
FE00
ENDCHAR

STARTCHAR afii10037
ENCODING 195
SWIDTH 781 0
DWIDTH 15 0
BBX 16 14 0 0
BITMAP
7F3F
1C0C
1C18
1C18
0E30
0E60
0E40
0EC0
0780
6700
E600
C400
4800
3000
ENDCHAR

STARTCHAR afii10038
ENCODING 196
SWIDTH 990 0
DWIDTH 19 0
BBX 16 14 2 0
BITMAP
03F8
00E0
0FFC
38EE
71C7
71C7
E1C7
E387
E38E
E38E
771C
3FF0
0700
1FC0
ENDCHAR

STARTCHAR afii10039
ENCODING 197
SWIDTH 823 0
DWIDTH 16 0
BBX 16 14 0 0
BITMAP
3FBF
0E0C
0E08
0710
0720
03C0
01C0
01C0
02E0
0470
0870
1038
3038
FCFE
ENDCHAR

STARTCHAR afii10040
ENCODING 198
SWIDTH 865 0
DWIDTH 16 0
BBX 18 17 0 -3
BITMAP
1FDFC0
070700
070700
070700
0E0E00
0E0E00
0E0E00
1C1C00
1C1C00
1C1C00
383800
383800
383800
FFFE00
000600
000200
000200
ENDCHAR

STARTCHAR afii10041
ENCODING 199
SWIDTH 823 0
DWIDTH 16 0
BBX 15 14 1 0
BITMAP
FEFE
3838
3838
3838
7070
7070
79F0
3FE0
1EE0
00E0
01C0
01C0
01C0
07F0
ENDCHAR

STARTCHAR afii10042
ENCODING 200
SWIDTH 1240 0
DWIDTH 24 0
BBX 24 14 0 0
BITMAP
1FDF7F
070E1C
070E1C
070E1C
0E1C38
0E1C38
0E1C38
1C3870
1C3870
1C3870
3870E0
3870E0
3870E0
FFFFF8
ENDCHAR

STARTCHAR afii10043
ENCODING 201
SWIDTH 1240 0
DWIDTH 24 0
BBX 24 17 0 -3
BITMAP
1FDF7F
070E1C
070E1C
070E1C
0E1C38
0E1C38
0E1C38
1C3870
1C3870
1C3870
3870E0
3870E0
3870E0
FFFFFC
00000C
000004
000004
ENDCHAR

STARTCHAR afii10044
ENCODING 202
SWIDTH 938 0
DWIDTH 18 0
BBX 15 14 2 0
BITMAP
7FE0
6380
C380
8380
0700
0700
07F0
0E1C
0E0E
0E0E
1C0E
1C1C
1C38
7FE0
ENDCHAR

STARTCHAR afii10045
ENCODING 203
SWIDTH 1240 0
DWIDTH 24 0
BBX 24 14 0 0
BITMAP
1FC07F
07001C
07001C
07001C
0E0038
0E0038
0FE038
1C3870
1C1C70
1C1C70
381CF0
3838E0
3870E0
FFC3F8
ENDCHAR

STARTCHAR afii10046
ENCODING 204
SWIDTH 802 0
DWIDTH 15 0
BBX 14 14 0 0
BITMAP
1FC0
0700
0700
0700
0E00
0E00
0FE0
1C38
1C1C
1C1C
381C
3838
3870
FFC0
ENDCHAR

STARTCHAR afii10047
ENCODING 205
SWIDTH 740 0
DWIDTH 14 0
BBX 13 14 1 0
BITMAP
3FC0
38F0
7070
4078
4038
0038
07F8
0038
0078
8070
80F0
40E0
63C0
1F00
ENDCHAR

STARTCHAR afii10048
ENCODING 206
SWIDTH 1135 0
DWIDTH 22 0
BBX 23 14 -1 0
BITMAP
1FC3F0
070E1C
071C0C
07380E
0E380E
0E700E
0FF00E
1C700E
1C700E
1C701C
38701C
387038
383870
FE0FC0
ENDCHAR

STARTCHAR afii10049
ENCODING 207
SWIDTH 844 0
DWIDTH 16 0
BBX 17 14 0 0
BITMAP
01FF80
078E00
070E00
0E0E00
0E1C00
0E1C00
071C00
07F800
0E3800
1C3800
387000
387000
707000
F1FC00
ENDCHAR

STARTCHAR afii10065
ENCODING 208
SWIDTH 667 0
DWIDTH 13 0
BBX 12 10 1 0
BITMAP
1E60
3BE0
71E0
70E0
E1C0
E1C0
E1C0
E390
77A0
3DC0
ENDCHAR

STARTCHAR afii10066
ENCODING 209
SWIDTH 594 0
DWIDTH 11 0
BBX 12 14 1 0
BITMAP
03F0
0FE0
1F80
3000
6F00
7B80
71C0
F1C0
E1C0
E1C0
E380
E380
7700
3C00
ENDCHAR

STARTCHAR afii10067
ENCODING 210
SWIDTH 563 0
DWIDTH 11 0
BBX 9 10 1 0
BITMAP
0F00
3980
7180
7380
E700
FF00
E380
E380
7700
3E00
ENDCHAR

STARTCHAR afii10068
ENCODING 211
SWIDTH 500 0
DWIDTH 10 0
BBX 9 10 1 0
BITMAP
1F00
2780
0380
0700
0E00
3800
7000
E000
F200
7C00
ENDCHAR

STARTCHAR afii10069
ENCODING 212
SWIDTH 594 0
DWIDTH 11 0
BBX 10 14 1 0
BITMAP
1E00
0380
01C0
00C0
1EC0
3BC0
71C0
71C0
E1C0
E1C0
E380
E380
7700
3C00
ENDCHAR

STARTCHAR afii10070
ENCODING 213
SWIDTH 500 0
DWIDTH 10 0
BBX 9 10 1 0
BITMAP
0F00
3980
7180
7380
E700
EC00
F000
E100
7200
3C00
ENDCHAR

STARTCHAR afii10072
ENCODING 214
SWIDTH 1146 0
DWIDTH 22 0
BBX 22 10 0 0
BITMAP
1E1878
2719CC
439B8C
03B380
03FF00
03B700
073700
C76708
CE6390
7861E0
ENDCHAR

STARTCHAR afii10073
ENCODING 215
SWIDTH 542 0
DWIDTH 10 0
BBX 9 10 1 0
BITMAP
3F00
3380
2180
0380
1F00
0700
C300
C700
8E00
7800
ENDCHAR

STARTCHAR afii10074
ENCODING 216
SWIDTH 677 0
DWIDTH 13 0
BBX 12 10 1 0
BITMAP
F8E0
38E0
38E0
71C0
71C0
71C0
E380
E390
E3A0
7DC0
ENDCHAR

STARTCHAR afii10075
ENCODING 217
SWIDTH 677 0
DWIDTH 13 0
BBX 12 13 1 0
BITMAP
0640
0380
0000
F8E0
38E0
38E0
71C0
71C0
71C0
E380
E390
E3A0
7DC0
ENDCHAR

STARTCHAR afii10076
ENCODING 218
SWIDTH 646 0
DWIDTH 12 0
BBX 12 10 1 0
BITMAP
F860
38F0
3930
7300
7E00
7700
7700
E380
E380
E3C0
ENDCHAR

STARTCHAR afii10077
ENCODING 219
SWIDTH 708 0
DWIDTH 13 0
BBX 14 10 0 0
BITMAP
07F8
0338
0238
0270
0470
0470
08E0
C8E4
F0E8
6070
ENDCHAR

STARTCHAR afii10078
ENCODING 220
SWIDTH 948 0
DWIDTH 18 0
BBX 18 10 0 0
BITMAP
0F8780
078F80
078B80
059380
0D9700
09A700
09A700
D9CE40
F1CE80
618700
ENDCHAR

STARTCHAR afii10079
ENCODING 221
SWIDTH 688 0
DWIDTH 13 0
BBX 12 10 1 0
BITMAP
F8E0
38E0
38E0
39C0
7FC0
71C0
7380
E390
E3A0
E1C0
ENDCHAR

STARTCHAR afii10080
ENCODING 222
SWIDTH 594 0
DWIDTH 11 0
BBX 10 10 1 0
BITMAP
0F00
3B80
71C0
71C0
E1C0
E1C0
E380
E380
7700
3C00
ENDCHAR

STARTCHAR afii10081
ENCODING 223
SWIDTH 677 0
DWIDTH 13 0
BBX 12 10 1 0
BITMAP
FBC0
3CE0
38E0
30E0
71C0
71C0
71C0
E390
E3A0
E1C0
ENDCHAR

STARTCHAR afii10082
ENCODING 224
SWIDTH 646 0
DWIDTH 12 0
BBX 13 13 -1 -3
BITMAP
1EE0
0F70
0E38
1C38
1C38
1C38
1C70
3870
3CE0
3B80
7000
7000
FC00
ENDCHAR

STARTCHAR afii10083
ENCODING 225
SWIDTH 510 0
DWIDTH 10 0
BBX 9 10 1 0
BITMAP
0F00
3980
7080
7000
E000
E000
E000
E100
7200
3C00
ENDCHAR

STARTCHAR afii10084
ENCODING 226
SWIDTH 958 0
DWIDTH 18 0
BBX 18 10 0 0
BITMAP
FBDF00
3CF380
38E380
38E380
71C700
71C700
71C700
E38E40
E38E80
E38700
ENDCHAR

STARTCHAR afii10085
ENCODING 227
SWIDTH 531 0
DWIDTH 10 0
BBX 11 13 -1 -3
BITMAP
3840
5CE0
9C60
1C20
0E60
0E40
0EC0
0780
0700
0600
4400
6800
3000
ENDCHAR

STARTCHAR afii10086
ENCODING 228
SWIDTH 833 0
DWIDTH 16 0
BBX 15 18 1 -3
BITMAP
003C
006E
0066
00C0
00C0
1EDC
3BEE
71CE
718E
E38E
E38E
E31C
E71C
EFB8
76F0
0600
EC00
7800
ENDCHAR

STARTCHAR afii10087
ENCODING 229
SWIDTH 615 0
DWIDTH 12 0
BBX 12 10 0 0
BITMAP
18E0
3DB0
6DB0
0F00
0700
0E00
0F00
DB60
DBC0
7180
ENDCHAR

STARTCHAR afii10088
ENCODING 230
SWIDTH 677 0
DWIDTH 13 0
BBX 12 10 1 0
BITMAP
F8E0
38E0
38E0
71C0
71C0
71C0
E380
E390
E3A0
7DC0
ENDCHAR

STARTCHAR afii10089
ENCODING 231
SWIDTH 646 0
DWIDTH 12 0
BBX 12 10 0 0
BITMAP
F8E0
38E0
38E0
71C0
71C0
71C0
3F80
0390
03A0
01C0
ENDCHAR

STARTCHAR afii10090
ENCODING 232
SWIDTH 948 0
DWIDTH 18 0
BBX 18 10 1 0
BITMAP
F8E380
38E380
38E380
71C700
71C700
71C700
E18E00
E38E40
E79E80
7DEF00
ENDCHAR

STARTCHAR afii10091
ENCODING 233
SWIDTH 948 0
DWIDTH 18 0
BBX 18 14 1 -4
BITMAP
F8E380
38E380
38E380
71C700
71C700
71C700
E18E00
E38E40
E79E80
7DEF80
000080
000180
000180
000100
ENDCHAR

STARTCHAR afii10092
ENCODING 234
SWIDTH 646 0
DWIDTH 12 0
BBX 11 10 1 0
BITMAP
7A00
FE00
0C00
1800
1FC0
3CE0
38E0
38E0
39C0
1F00
ENDCHAR

STARTCHAR afii10093
ENCODING 235
SWIDTH 917 0
DWIDTH 17 0
BBX 16 10 1 0
BITMAP
F83E
380E
380E
701C
7F1C
739C
E3B8
E3B9
E73A
7C1C
ENDCHAR

STARTCHAR afii10094
ENCODING 236
SWIDTH 604 0
DWIDTH 11 0
BBX 9 10 1 0
BITMAP
F800
3800
3800
7000
7F00
7380
E380
E380
E700
7C00
ENDCHAR

STARTCHAR afii10095
ENCODING 237
SWIDTH 521 0
DWIDTH 10 0
BBX 9 10 1 0
BITMAP
1E00
2700
4380
0380
1F80
0380
0700
C700
CE00
7800
ENDCHAR

STARTCHAR afii10096
ENCODING 238
SWIDTH 885 0
DWIDTH 16 0
BBX 15 10 1 0
BITMAP
F878
39DC
3B8E
738E
7F0E
770E
771C
E71C
E3B8
E1E0
ENDCHAR

STARTCHAR afii10097
ENCODING 239
SWIDTH 667 0
DWIDTH 13 0
BBX 13 10 0 0
BITMAP
0FF0
1E70
1C70
1CE0
0EE0
0FE0
1DC0
39C8
71D0
F0E0
ENDCHAR

STARTCHAR afii61352
ENCODING 240
SWIDTH 1115 0
DWIDTH 21 0
BBX 21 14 0 0
BITMAP
0F81C0
0383E0
0782C0
07C600
05C4F0
05C598
0DED98
08EB18
08EB30
08FB30
1879E0
D07000
F033E0
6037C0
ENDCHAR

STARTCHAR afii10071
ENCODING 241
SWIDTH 500 0
DWIDTH 10 0
BBX 9 14 1 0
BITMAP
7380
7380
7380
0000
0F00
3980
7180
7380
E700
EC00
F000
E100
7200
3C00
ENDCHAR

STARTCHAR afii10099
ENCODING 242
SWIDTH 635 0
DWIDTH 12 0
BBX 11 17 1 -3
BITMAP
3C00
1C00
7FC0
1C00
3BC0
3CE0
38E0
70E0
71C0
71C0
E1C0
E380
E380
E300
0700
0600
1C00
ENDCHAR

STARTCHAR afii10100
ENCODING 243
SWIDTH 563 0
DWIDTH 11 0
BBX 12 14 -1 0
BITMAP
0060
00E0
0180
0000
3FF0
0E30
0E10
1C00
1C00
1C00
3800
3800
3800
FE00
ENDCHAR

STARTCHAR afii10101
ENCODING 244
SWIDTH 510 0
DWIDTH 10 0
BBX 9 10 1 0
BITMAP
0F00
3980
7180
7000
FE00
E000
E000
E100
7200
3C00
ENDCHAR

STARTCHAR afii10102
ENCODING 245
SWIDTH 500 0
DWIDTH 10 0
BBX 10 10 0 0
BITMAP
0F80
1CC0
3840
3C00
3E00
1F00
0F00
8700
CE00
7C00
ENDCHAR

STARTCHAR afii10103
ENCODING 246
SWIDTH 396 0
DWIDTH 8 0
BBX 6 14 1 0
BITMAP
1C
1C
1C
00
F8
38
38
70
70
70
E0
E4
E8
70
ENDCHAR

STARTCHAR afii10104
ENCODING 247
SWIDTH 396 0
DWIDTH 8 0
BBX 7 14 1 0
BITMAP
EE
EE
EE
00
F8
38
38
70
70
70
E0
E4
E8
70
ENDCHAR

STARTCHAR afii10105
ENCODING 248
SWIDTH 396 0
DWIDTH 8 0
BBX 10 17 -1 -3
BITMAP
01C0
01C0
01C0
0000
0F80
0380
0380
0700
0700
0700
0E00
0E00
0E00
1C00
DC00
D800
7000
ENDCHAR

STARTCHAR afii10106
ENCODING 249
SWIDTH 969 0
DWIDTH 18 0
BBX 17 10 1 0
BITMAP
07F800
033800
023800
027000
047F00
047380
08E380
C8E380
F0E700
607C00
ENDCHAR

STARTCHAR afii10107
ENCODING 250
SWIDTH 917 0
DWIDTH 17 0
BBX 15 10 1 0
BITMAP
F8E0
38E0
38E0
71C0
7FFC
71CE
738E
E38E
E39C
E1F0
ENDCHAR

STARTCHAR afii10108
ENCODING 251
SWIDTH 677 0
DWIDTH 13 0
BBX 12 14 1 0
BITMAP
3C00
1C00
7FC0
1C00
3BC0
3CE0
38E0
70E0
71C0
71C0
E1C0
E390
E3A0
E1C0
ENDCHAR

STARTCHAR afii10109
ENCODING 252
SWIDTH 646 0
DWIDTH 12 0
BBX 12 14 1 0
BITMAP
00C0
01C0
0300
0000
F860
38F0
3930
7300
7E00
7700
7700
E380
E380
E3C0
ENDCHAR

STARTCHAR section
ENCODING 253
SWIDTH 552 0
DWIDTH 10 0
BBX 9 17 1 -3
BITMAP
1F00
3B80
7380
7100
7800
3E00
5F00
C780
E380
F180
7D00
3E00
0F00
4700
E700
EE00
7C00
ENDCHAR

STARTCHAR afii10110
ENCODING 254
SWIDTH 531 0
DWIDTH 10 0
BBX 11 16 -1 -3
BITMAP
0C80
0700
0000
3840
5CE0
9C60
1C20
0E60
0E40
0EC0
0780
0700
0600
6400
6800
3000
ENDCHAR

STARTCHAR afii10193
ENCODING 255
SWIDTH 677 0
DWIDTH 13 0
BBX 12 14 1 -4
BITMAP
F8E0
38E0
38E0
71C0
71C0
71C0
E380
E390
E3A0
7DC0
3000
3000
6000
4000
ENDCHAR
ENDFONT
